<svg width="157" height="69" viewBox="0 0 157 69" fill="none" xmlns="http://www.w3.org/2000/svg">
<g id="Logo">
<path id="Vector" d="M17.2917 68.9998C24.965 68.9998 31.3938 66.79 35.8533 62.57C39.1481 59.4759 41.2375 55.5981 42.4623 50.3752C45.0531 53.6495 49.0909 55.538 54.1538 55.538C57.9499 55.538 61.3647 54.4136 63.9974 52.4034C66.3271 54.4122 69.7433 55.538 73.3579 55.538C75.6274 55.538 77.5562 54.9961 78.9417 53.8911C80.3886 54.9961 82.4976 55.538 85.0088 55.538C88.8049 55.538 92.02 54.3926 94.3301 52.3434C96.7212 54.3325 99.8944 55.457 103.369 55.457C108.452 55.457 113.052 53.1061 116.386 49.0481C120.062 53.2276 125.828 55.6177 132.777 55.6177C146.518 55.6177 156.201 46.4164 156.201 33.3164C156.201 21.8242 147.884 14.2699 135.389 14.2699C128.72 14.2699 122.854 16.4602 118.675 20.3379C116.023 16.5803 111.906 14.4305 106.823 14.4305C105.819 14.4305 104.794 14.5311 103.77 14.6917L104.513 7.70033C104.995 3.22052 102.404 0.326172 97.9447 0.326172H87.7393C83.9432 0.326172 81.2909 2.71764 80.9292 6.4138L80.0255 15.7366C79.1819 15.3748 78.2378 15.1946 77.2126 15.1946H66.6064C65.0198 15.1946 63.5324 15.7366 62.3885 16.6613C61.2642 15.7366 59.7572 15.1946 57.9695 15.1946H47.7641C46.0769 15.1946 44.5294 15.7576 43.345 16.741C42.1998 15.7562 40.6732 15.1946 38.926 15.1946H28.3198C26.7527 15.1946 25.2667 15.7576 24.1214 16.6809C22.9971 15.7366 21.4691 15.1946 19.6814 15.1946H9.47741C5.74135 15.1946 3.02903 17.5651 2.6673 21.2417L1.28181 35.1645C0.618399 41.8556 1.42288 46.1943 4.19525 49.6306C4.27625 49.7312 4.35586 49.8108 4.41592 49.9114C2.78881 50.8962 1.6645 52.6032 1.40332 54.7739L0.861419 59.4549C0.420074 63.3131 2.40752 66.2452 6.18409 67.3711C9.61848 68.3978 13.6953 68.9998 17.2917 68.9998Z" fill="#FFE500"/>
<path id="Vector_2" d="M132.777 51.7216C124.541 51.7216 118.756 47.9039 116.787 41.576C116.706 41.2952 116.607 41.1737 116.466 41.1737C116.285 41.1737 116.164 41.3748 116.003 41.7562C113.653 47.563 109.114 51.5609 103.368 51.5609C98.9892 51.5609 95.7546 49.1904 94.4892 45.8141C94.3691 45.4928 94.2476 45.3322 94.0869 45.3322C93.9263 45.3322 93.8258 45.4523 93.7252 45.8141C92.6805 49.5913 89.5464 51.6405 85.0073 51.6405C81.5924 51.6405 80.7279 50.6767 80.9095 48.8482L85.0073 6.75723C85.1483 5.23043 86.2531 4.22607 87.7391 4.22607H97.9445C99.6722 4.22607 100.636 5.39107 100.435 7.27966L99.0688 20.138C99.0283 20.4397 99.1289 20.5794 99.33 20.5794C99.4906 20.5794 99.6317 20.4788 99.9124 20.2777C101.298 19.2733 103.97 18.329 106.823 18.329C112.368 18.329 116.084 21.7444 117.35 27.4297C117.431 27.832 117.53 28.0318 117.711 28.0318C117.872 28.0318 117.992 27.8907 118.153 27.5694C121.227 21.743 127.414 18.167 135.389 18.167C145.674 18.167 152.103 24.0339 152.103 33.3162C152.103 44.2468 144.268 51.7216 132.777 51.7216Z" fill="#151400"/>
<path id="Vector_3" d="M133.742 38.2208C135.549 38.2208 136.876 36.2121 136.876 33.5189C136.876 31.5102 135.951 30.2642 134.506 30.2642C132.698 30.2642 131.412 32.3134 131.412 34.9661C131.411 36.9748 132.295 38.2208 133.742 38.2208Z" fill="#FFE500"/>
<path id="Vector_4" d="M99.3916 38.2208C101.199 38.2208 102.485 36.2512 102.485 33.5594C102.485 31.5507 101.561 30.2642 100.075 30.2642C98.3064 30.2642 97.0215 32.2338 97.0215 34.9256C97.0215 36.9343 97.9447 38.2208 99.3916 38.2208Z" fill="#FFE500"/>
<path id="Vector_5" d="M54.1533 51.6407C49.9354 51.6407 46.7608 49.9532 44.9731 46.9192C43.6476 44.6688 43.0848 41.6949 43.487 37.5363L45.0331 21.6244C45.1742 20.0976 46.2789 19.0933 47.765 19.0933H57.969C59.8573 19.0933 60.6408 20.2583 60.4592 22.1469L59.1729 36.1311C59.0528 37.5377 59.7357 38.3409 60.8196 38.3409C61.9048 38.3409 62.5877 37.4972 62.7078 36.2107L64.1939 21.2626C64.335 19.937 65.3992 19.0933 66.6045 19.0933H77.2108C78.8979 19.0933 79.8826 20.1786 79.701 22.1469L77.0893 49.1892C76.9091 50.9967 75.7233 51.6407 73.3532 51.6407C70.099 51.6407 66.9649 50.4352 65.6394 48.1848C65.2372 47.4612 65.057 46.5379 64.997 45.7333C64.9774 45.4525 64.8769 45.331 64.7162 45.331C64.5556 45.331 64.4355 45.4511 64.314 45.6927C62.7106 49.2702 59.0947 51.6407 54.1533 51.6407Z" fill="#151400"/>
<path id="Vector_6" d="M17.2918 65.1025C14.0181 65.1025 10.5027 64.5801 7.34762 63.6358C5.6004 63.1134 4.69536 61.9484 4.93699 59.9187L5.47889 55.2377C5.65906 53.7305 6.5236 52.8868 7.90908 52.8672C8.25127 52.8672 8.59205 52.9077 9.67726 53.1885C11.5655 53.6704 13.4943 53.9316 15.141 53.9316C20.4846 53.9316 23.8394 51.8014 24.5824 47.9041L24.7235 47.1609C24.824 46.6581 24.683 46.5379 24.5224 46.5379C24.3617 46.5379 24.2416 46.6581 24.081 46.9402C22.8352 49.2702 19.722 50.7984 15.7444 50.7984C12.1689 50.7984 9.25546 49.5329 7.38813 47.2015C5.58085 44.9511 4.73587 41.7159 5.35878 35.5486L6.74427 21.6259C6.90488 20.0991 7.99009 19.0947 9.47614 19.0947H19.6815C21.6103 19.0947 22.3338 20.3002 22.1718 22.1483L20.8855 36.1325C20.7653 37.5392 21.4483 38.3424 22.5321 38.3424C23.4958 38.3424 24.3003 37.4987 24.4204 36.2122L25.9065 21.2641C26.0475 19.9384 27.1928 19.0947 28.3171 19.0947H38.9233C40.5309 19.0947 41.5951 20.1801 41.4136 22.1483L39.3451 43.8671C38.5812 51.8028 36.4931 56.4837 33.0378 59.7399C29.3241 63.2545 24.0014 65.1025 17.2918 65.1025Z" fill="#151400"/>
</g>
</svg>
