<svg width="51" height="50" viewBox="0 0 51 50" fill="none" xmlns="http://www.w3.org/2000/svg">
<g id="Instagram">
<path id="back" fill-rule="evenodd" clip-rule="evenodd" d="M0.5 25C0.5 11.1929 11.6929 0 25.5 0C39.3071 0 50.5 11.1929 50.5 25C50.5 38.8071 39.3071 50 25.5 50C11.6929 50 0.5 38.8071 0.5 25Z" fill="white"/>
<path id="Icon" fill-rule="evenodd" clip-rule="evenodd" d="M25.5006 11.666C21.8794 11.666 21.425 11.6818 20.0028 11.7466C18.5833 11.8116 17.6144 12.0363 16.7666 12.366C15.8897 12.7066 15.1458 13.1621 14.4046 13.9035C13.663 14.6447 13.2074 15.3886 12.8657 16.2652C12.5352 17.1133 12.3102 18.0825 12.2463 19.5014C12.1827 20.9236 12.166 21.3783 12.166 24.9995C12.166 28.6206 12.1821 29.0737 12.2466 30.4959C12.3119 31.9154 12.5366 32.8843 12.866 33.7321C13.2069 34.609 13.6624 35.3529 14.4038 36.094C15.1447 36.8357 15.8886 37.2924 16.765 37.633C17.6133 37.9627 18.5825 38.1874 20.0017 38.2524C21.4239 38.3171 21.8781 38.333 25.4989 38.333C29.1204 38.333 29.5734 38.3171 30.9957 38.2524C32.4151 38.1874 33.3851 37.9627 34.2335 37.633C35.1101 37.2924 35.8529 36.8357 36.5938 36.094C37.3354 35.3529 37.791 34.609 38.1327 33.7324C38.4605 32.8843 38.6855 31.9151 38.7521 30.4962C38.816 29.074 38.8327 28.6206 38.8327 24.9995C38.8327 21.3783 38.816 20.9239 38.7521 19.5017C38.6855 18.0822 38.4605 17.1133 38.1327 16.2655C37.791 15.3886 37.3354 14.6447 36.5938 13.9035C35.8521 13.1619 35.1104 12.7063 34.2326 12.366C33.3826 12.0363 32.4132 11.8116 30.9937 11.7466C29.5715 11.6818 29.1187 11.666 25.4964 11.666H25.5006ZM24.3044 14.0695C24.6594 14.0689 25.0555 14.0695 25.5005 14.0695C29.0606 14.0695 29.4825 14.0823 30.8884 14.1462C32.1884 14.2056 32.8939 14.4228 33.3639 14.6053C33.9862 14.847 34.4298 15.1359 34.8962 15.6026C35.3629 16.0692 35.6517 16.5137 35.894 17.1359C36.0765 17.6054 36.294 18.3109 36.3531 19.6109C36.417 21.0165 36.4309 21.4387 36.4309 24.9971C36.4309 28.5555 36.417 28.9777 36.3531 30.3833C36.2937 31.6833 36.0765 32.3889 35.894 32.8583C35.6523 33.4805 35.3629 33.9236 34.8962 34.39C34.4295 34.8567 33.9864 35.1455 33.3639 35.3872C32.8945 35.5706 32.1884 35.7872 30.8884 35.8467C29.4828 35.9106 29.0606 35.9244 25.5005 35.9244C21.9402 35.9244 21.5183 35.9106 20.1127 35.8467C18.8127 35.7867 18.1071 35.5694 17.6368 35.3869C17.0146 35.1453 16.5702 34.8564 16.1035 34.3897C15.6368 33.923 15.3479 33.4797 15.1057 32.8572C14.9232 32.3877 14.7057 31.6822 14.6465 30.3822C14.5826 28.9766 14.5699 28.5544 14.5699 24.9938C14.5699 21.4332 14.5826 21.0132 14.6465 19.6076C14.706 18.3076 14.9232 17.602 15.1057 17.132C15.3474 16.5098 15.6368 16.0653 16.1035 15.5987C16.5702 15.132 17.0146 14.8431 17.6368 14.6009C18.1068 14.4176 18.8127 14.2009 20.1127 14.1412C21.3427 14.0856 21.8194 14.0689 24.3044 14.0662V14.0695ZM32.6179 16.2835C31.7345 16.2835 31.0178 16.9994 31.0178 17.883C31.0178 18.7663 31.7345 19.483 32.6179 19.483C33.5012 19.483 34.2179 18.7663 34.2179 17.883C34.2179 16.9996 33.5012 16.283 32.6179 16.283V16.2835ZM25.5005 18.1531C21.719 18.1531 18.6532 21.2189 18.6532 25.0004C18.6532 28.7818 21.719 31.8463 25.5005 31.8463C29.2819 31.8463 32.3467 28.7818 32.3467 25.0004C32.3467 21.2189 29.2816 18.1531 25.5002 18.1531H25.5005ZM25.5006 20.5554C27.955 20.5554 29.945 22.5452 29.945 24.9999C29.945 27.4544 27.955 29.4444 25.5006 29.4444C23.0458 29.4444 21.0561 27.4544 21.0561 24.9999C21.0561 22.5452 23.0458 20.5554 25.5006 20.5554Z" fill="#151400"/>
</g>
</svg>
