<svg width="51" height="50" viewBox="0 0 51 50" fill="none" xmlns="http://www.w3.org/2000/svg">
<g id="Linkedin">
<path id="back" fill-rule="evenodd" clip-rule="evenodd" d="M0.5 25C0.5 11.1929 11.6929 0 25.5 0C39.3071 0 50.5 11.1929 50.5 25C50.5 38.8071 39.3071 50 25.5 50C11.6929 50 0.5 38.8071 0.5 25Z" fill="white"/>
<g id="Icon">
<path d="M20.5526 15.3309C20.5235 14.0078 19.5773 13 18.0409 13C16.5045 13 15.5 14.0078 15.5 15.3309C15.5 16.6266 16.4748 17.6634 17.9826 17.6634H18.0113C19.5773 17.6634 20.5526 16.6266 20.5526 15.3309Z" fill="#151400"/>
<path d="M20.2569 19.5051H15.7656V32.9995H20.2569V19.5051Z" fill="#151400"/>
<path d="M31.2829 19.1884C34.2384 19.1884 36.4541 21.1175 36.4541 25.2624L36.4539 32.9996H31.9628V25.7801C31.9628 23.9668 31.3129 22.7294 29.687 22.7294C28.4462 22.7294 27.7071 23.5635 27.3825 24.3693C27.2638 24.658 27.2346 25.0603 27.2346 25.4636V33H22.7428C22.7428 33 22.802 20.7719 22.7428 19.5056H27.2346V21.417C27.8307 20.4982 28.8984 19.1884 31.2829 19.1884Z" fill="#151400"/>
</g>
</g>
</svg>
