<svg width="108" height="48" viewBox="0 0 108 48" fill="none" xmlns="http://www.w3.org/2000/svg">
<path fill-rule="evenodd" clip-rule="evenodd" d="M105.175 22.6993C105.175 16.31 100.694 12.2966 93.5512 12.2966C87.9989 12.2966 83.713 14.7689 81.57 18.7501C81.4726 18.9749 81.3752 19.0712 81.2777 19.0712C81.1479 19.0712 81.0829 18.9428 81.018 18.6538C80.1413 14.7367 77.5437 12.3929 73.7123 12.3929C71.7317 12.3929 69.881 13.0351 68.9069 13.7414C68.7121 13.8699 68.6146 13.9341 68.5172 13.9341C68.3874 13.9341 68.3224 13.8378 68.3224 13.6451L69.264 4.81571C69.3939 3.53143 68.7445 2.72876 67.5431 2.72876H60.4648C59.4258 2.72876 58.679 3.40301 58.5816 4.46253L55.7243 33.3909C55.5944 34.643 56.2113 35.3173 58.5816 35.3173C61.7311 35.3173 63.9066 33.9046 64.6534 31.3039C64.7183 31.0471 64.7832 30.9829 64.9131 30.9829C65.0105 30.9829 65.1079 31.0792 65.2053 31.3039C66.082 33.6156 68.3224 35.2531 71.3745 35.2531C75.3683 35.2531 78.5178 32.4919 80.1413 28.5106C80.2387 28.2538 80.3361 28.1253 80.466 28.1253C80.5634 28.1253 80.6283 28.2217 80.6933 28.4143C82.057 32.7487 86.0832 35.3815 91.7979 35.3815C99.7204 35.3494 105.175 30.2123 105.175 22.6993ZM19.1311 12.9388H26.5017C27.6382 12.9388 28.3525 13.6772 28.1901 14.9936L26.7615 29.9233C26.242 35.3815 24.7808 38.5922 22.3781 40.8397C19.813 43.2477 16.1115 44.532 11.4359 44.532C9.16301 44.532 6.7278 44.1788 4.51987 43.5367C3.28603 43.1514 2.66911 42.3487 2.83146 40.9681L3.2211 37.7574C3.35097 36.6979 3.93542 36.12 4.90951 36.12C5.1368 36.12 5.39655 36.1521 6.14335 36.3447C7.44213 36.6658 8.80585 36.8584 9.94228 36.8584C13.6438 36.8584 15.9816 35.3815 16.5011 32.7166L16.5985 32.2029C16.6635 31.8818 16.5661 31.7855 16.4686 31.7855C16.3712 31.7855 16.2738 31.8818 16.1764 32.0745C15.3322 33.6798 13.1568 34.7394 10.3969 34.7394C7.8967 34.7394 5.88359 33.8725 4.58481 32.2671C3.35097 30.726 2.76652 28.5106 3.18863 24.2725L4.16271 14.7046C4.26012 13.6451 5.00692 12.9709 6.04594 12.9709H13.1568C14.488 12.9709 14.975 13.7735 14.8776 15.0578L13.9685 24.6578C13.8711 25.621 14.3581 26.1668 15.1049 26.1668C15.7543 26.1668 16.3063 25.5889 16.4037 24.6899L17.4427 14.4157C17.5401 13.5167 18.3519 12.9388 19.1311 12.9388ZM45.7561 12.9388H53.1267C54.2956 12.9388 54.9775 13.6772 54.9775 15.0899L53.1592 33.6798C53.0293 34.8999 52.2175 35.3494 50.5616 35.3494C48.2887 35.3494 46.1133 34.5146 45.2041 32.9735C44.9119 32.4919 44.782 31.8497 44.7496 31.3039C44.7496 31.1113 44.6846 31.015 44.5548 31.015C44.4249 31.015 44.3599 31.1113 44.2625 31.2718C43.1261 33.7119 40.6259 35.3494 37.1842 35.3494C34.2295 35.3494 32.0215 34.1935 30.7877 32.1066C29.8461 30.5655 29.4564 28.5106 29.7487 25.6531L30.8202 14.7046C30.9176 13.6451 31.6644 12.9709 32.7034 12.9709H39.7817C41.0805 12.9709 41.6325 13.7735 41.5026 15.0578L40.5935 24.6578C40.4961 25.621 40.9831 26.1668 41.7299 26.1668C42.4767 26.1668 42.9313 25.5889 43.0287 24.6899L44.0677 14.4157C44.1651 13.5167 44.9119 12.9388 45.7561 12.9388ZM92.4154 26.0708C93.6817 26.0708 94.5909 24.6902 94.5909 22.828C94.5909 21.4474 93.9415 20.6126 92.9349 20.5805C91.7011 20.5805 90.7919 21.9932 90.7919 23.8233C90.7919 25.2039 91.4088 26.0708 92.4154 26.0708ZM66.8946 23.8227C66.8946 21.9605 67.7713 20.612 69.0051 20.612C70.0441 20.612 70.6935 21.4789 70.6935 22.8916C70.6935 24.7538 69.8168 26.1023 68.5505 26.1023C67.544 26.1023 66.8946 25.2033 66.8946 23.8227Z" fill="white"/>
<path d="M94.5901 22.828C94.5901 24.6902 93.681 26.0708 92.4146 26.0708C91.4081 26.0708 90.7912 25.2039 90.7912 23.8233C90.7912 21.9932 91.7003 20.5805 92.9342 20.5805C93.9407 20.6126 94.5901 21.4474 94.5901 22.828ZM69.0041 20.6126C67.7703 20.6126 66.8936 21.9611 66.8936 23.8233C66.8936 25.2039 67.543 26.1029 68.5496 26.1029C69.8159 26.1029 70.6926 24.7544 70.6926 22.8922C70.6926 21.4795 70.0432 20.6126 69.0041 20.6126ZM108 22.6996C108 31.6895 101.279 38.0146 91.7328 38.0146C86.8948 38.0146 82.9011 36.3771 80.336 33.4875C78.0307 36.2808 74.8162 37.8862 71.277 37.8862C68.8743 37.8862 66.6663 37.1156 65.0104 35.735C63.4194 37.1477 61.179 37.9183 58.5165 37.9183C56.7631 37.9183 55.302 37.533 54.2955 36.7945C53.3214 37.5651 51.9901 37.9183 50.3991 37.9183C47.899 37.9183 45.5287 37.1477 43.9052 35.7671C42.0869 37.1477 39.7167 37.9183 37.0542 37.9183C33.5475 37.9183 30.7226 36.634 28.9368 34.3544C28.0926 37.9504 26.6315 40.6153 24.3586 42.7343C21.274 45.6239 16.7932 47.1651 11.4682 47.1651C8.96806 47.1651 6.14321 46.7477 3.74047 46.0413C1.11044 45.2708 -0.253277 43.248 0.0389488 40.6152L0.428583 37.4046C0.6234 35.9276 1.40267 34.7397 2.5391 34.0654C2.50663 34.0012 2.44169 33.937 2.37675 33.8728C0.461052 31.4969 -0.123399 28.5431 0.363644 23.9197L1.33773 14.3518C1.59748 11.8153 3.48071 10.21 6.07827 10.21H13.1566C14.3905 10.21 15.462 10.5953 16.2412 11.2374C17.053 10.5953 18.0595 10.21 19.1635 10.21H26.534C27.7354 10.21 28.8069 10.5953 29.6187 11.2695C30.4304 10.5953 31.5019 10.21 32.7033 10.21H39.7816C41.0154 10.21 42.0869 10.5953 42.8662 11.2053C43.6779 10.5632 44.6845 10.21 45.7885 10.21H53.159C53.8734 10.21 54.5227 10.3384 55.1072 10.5953L55.7241 4.1739C55.9839 1.63745 57.8346 0 60.4647 0H67.543C70.6276 0 72.4459 1.99063 72.1212 5.07289L71.6017 9.88893C72.316 9.79261 73.0304 9.69629 73.7122 9.69629C77.2514 9.69629 80.1087 11.1732 81.9595 13.7418C84.8493 11.0769 88.9404 9.56786 93.5835 9.56786C102.22 9.59997 108 14.8013 108 22.6996ZM26.5016 12.9391H19.131C18.3517 12.9391 17.54 13.517 17.4426 14.416L16.4036 24.6902C16.3062 25.5892 15.7542 26.1671 15.1048 26.1671C14.358 26.1671 13.8709 25.6213 13.9684 24.6581L14.8775 15.0581C14.9749 13.7739 14.4879 12.9712 13.1566 12.9712H6.0458C5.00678 12.9712 4.25998 13.6454 4.16257 14.705L3.18849 24.2728C2.76639 28.5109 3.35084 30.7263 4.58468 32.2675C5.88346 33.8728 7.89656 34.7397 10.3967 34.7397C13.1566 34.7397 15.3321 33.6802 16.1763 32.0748C16.2737 31.8822 16.3711 31.7858 16.4685 31.7858C16.5659 31.7858 16.6633 31.8822 16.5984 32.2032L16.501 32.7169C15.9815 35.3818 13.6437 36.8587 9.94214 36.8587C8.80571 36.8587 7.44199 36.6661 6.14321 36.345C5.39641 36.1524 5.13666 36.1203 4.90937 36.1203C3.93529 36.1203 3.35084 36.6982 3.22096 37.7577L2.83132 40.9684C2.66898 42.349 3.2859 43.1517 4.51974 43.537C6.72766 44.1791 9.16288 44.5323 11.4357 44.5323C16.1113 44.5323 19.8129 43.248 22.378 40.84C24.7807 38.5925 26.2418 35.3818 26.7613 29.9236L28.19 14.9939C28.3523 13.6775 27.638 12.9391 26.5016 12.9391ZM53.1266 12.9391H45.756C44.9118 12.9391 44.165 13.517 44.0676 14.416L43.0285 24.6902C42.9311 25.5892 42.4766 26.1671 41.7298 26.1671C40.983 26.1671 40.4959 25.6213 40.5933 24.6581L41.5025 15.0581C41.6324 13.7739 41.0804 12.9712 39.7816 12.9712H32.7033C31.6642 12.9712 30.9174 13.6454 30.82 14.705L29.7485 25.6534C29.4563 28.5109 29.8459 30.5658 30.7876 32.1069C32.0214 34.1939 34.2293 35.3497 37.184 35.3497C40.6258 35.3497 43.126 33.7123 44.2624 31.2721C44.3598 31.1116 44.4247 31.0153 44.5546 31.0153C44.6845 31.0153 44.7494 31.1116 44.7494 31.3042C44.7819 31.8501 44.9118 32.4922 45.204 32.9738C46.1132 34.5149 48.2886 35.3497 50.5615 35.3497C52.2174 35.3497 53.0292 34.9002 53.159 33.6802L54.9773 15.0903C54.9773 13.6775 54.2955 12.9391 53.1266 12.9391ZM105.175 22.6996C105.175 16.3103 100.694 12.2969 93.5511 12.2969C87.9988 12.2969 83.7128 14.7692 81.5698 18.7504C81.4724 18.9752 81.375 19.0715 81.2776 19.0715C81.1477 19.0715 81.0828 18.9431 81.0179 18.6541C80.1412 14.7371 77.5436 12.3933 73.7122 12.3933C71.7316 12.3933 69.8808 13.0354 68.9067 13.7418C68.7119 13.8702 68.6145 13.9344 68.5171 13.9344C68.3872 13.9344 68.3223 13.8381 68.3223 13.6454L69.2639 4.81604C69.3938 3.53176 68.7444 2.72909 67.543 2.72909H60.4647C59.4256 2.72909 58.6788 3.40333 58.5814 4.46286L55.7241 33.3912C55.5942 34.6434 56.2112 35.3176 58.5814 35.3176C61.731 35.3176 63.9064 33.9049 64.6532 31.3042C64.7182 31.0474 64.7831 30.9832 64.913 30.9832C65.0104 30.9832 65.1078 31.0795 65.2052 31.3042C66.0819 33.6159 68.3223 35.2534 71.3744 35.2534C75.3682 35.2534 78.5177 32.4922 80.1412 28.5109C80.2386 28.2541 80.336 28.1257 80.4659 28.1257C80.5633 28.1257 80.6282 28.222 80.6932 28.4146C82.0569 32.7491 86.0831 35.3818 91.7977 35.3818C99.7203 35.3497 105.175 30.2126 105.175 22.6996Z" fill="#151400"/>
</svg>
