<svg width="51" height="50" viewBox="0 0 51 50" fill="none" xmlns="http://www.w3.org/2000/svg">
<g id="TikTok">
<path id="back" fill-rule="evenodd" clip-rule="evenodd" d="M0.5 25C0.5 11.1929 11.6929 0 25.5 0C39.3071 0 50.5 11.1929 50.5 25C50.5 38.8071 39.3071 50 25.5 50C11.6929 50 0.5 38.8071 0.5 25Z" fill="white"/>
<path id="Vector" d="M35.4958 21.3055C35.3041 21.3234 35.1125 21.333 34.9208 21.3344C32.8167 21.3344 30.8539 20.2908 29.6998 18.5575V28.0116C29.6998 31.8706 26.5213 35 22.5985 35C18.6757 35 15.5 31.872 15.5 28.0116C15.5 24.1512 18.6785 21.0232 22.6013 21.0232C22.7496 21.0232 22.8951 21.037 23.0406 21.0453V24.4885C22.8951 24.472 22.751 24.4445 22.6013 24.4445C20.5993 24.4445 18.9779 26.0415 18.9779 28.0102C18.9779 29.9804 20.6007 31.576 22.6013 31.576C24.6032 31.576 26.3716 30.0244 26.3716 28.0543L26.4051 12H29.7529C30.0691 14.9545 32.4894 17.2619 35.5 17.4781V21.3055" fill="#151400"/>
</g>
</svg>
