<svg width="51" height="50" viewBox="0 0 51 50" fill="none" xmlns="http://www.w3.org/2000/svg">
<g id="Youtube">
<path id="back" fill-rule="evenodd" clip-rule="evenodd" d="M0.5 25C0.5 11.1929 11.6929 0 25.5 0C39.3071 0 50.5 11.1929 50.5 25C50.5 38.8071 39.3071 50 25.5 50C11.6929 50 0.5 38.8071 0.5 25Z" fill="white"/>
<path id="Icon" d="M37.9534 18.8161C37.658 17.7129 36.7716 16.8419 35.6489 16.5371C33.625 16 25.5 16 25.5 16C25.5 16 17.375 16 15.3364 16.5371C14.2136 16.8274 13.342 17.6984 13.0318 18.8161C12.5 20.8194 12.5 25 12.5 25C12.5 25 12.5 29.1806 13.0466 31.1839C13.342 32.2871 14.2284 33.1581 15.3511 33.4629C17.375 34 25.5 34 25.5 34C25.5 34 33.625 34 35.6636 33.4629C36.7864 33.1726 37.658 32.3016 37.9682 31.1839C38.5 29.1806 38.5 25 38.5 25C38.5 25 38.5 20.8194 37.9534 18.8161ZM22.8409 28.8032V21.1968L29.6364 25L22.8409 28.8032Z" fill="#151400"/>
</g>
</svg>
